<svg width="430" height="394" viewBox="0 0 430 394" fill="none" xmlns="http://www.w3.org/2000/svg">
<ellipse cx="214.753" cy="197" rx="214.753" ry="197" fill="url(#paint0_linear_120_295)"/>
<path d="M142.45 154.95V194.55L127 210H82V255H94V261H35.5V255H47.5V147H35.5V141H128.5L142.45 154.95ZM82 204H107.95V147H82V204ZM216.021 261H157.521V255H169.521V147H157.521V141H249.021L262.971 154.95V188.55L250.521 201L262.971 213.45V255H274.971V261H240.921L228.471 248.55V204H204.021V255H216.021V261ZM204.021 147V198H228.471V147H204.021ZM297.923 261L282.473 245.55V156.45L297.923 141H365.273L380.723 156.45V245.55L365.273 261H297.923ZM316.973 147V255H346.223V147H316.973Z" fill="white"/>
<defs>
<linearGradient id="paint0_linear_120_295" x1="214.753" y1="0" x2="214.753" y2="394" gradientUnits="userSpaceOnUse">
<stop offset="0.095" stop-color="#007822"/>
<stop offset="0.95" stop-color="#020302"/>
<stop offset="1"/>
</linearGradient>
</defs>
</svg>
